<svg width="20" height="20" viewBox="0 0 20 20" fill="none" xmlns="http://www.w3.org/2000/svg">
<path d="M6.45838 2.08337C6.45838 1.91761 6.39253 1.75864 6.27532 1.64143C6.15811 1.52422 5.99914 1.45837 5.83338 1.45837C5.66762 1.45837 5.50865 1.52422 5.39144 1.64143C5.27423 1.75864 5.20838 1.91761 5.20838 2.08337V3.40004C4.00838 3.49587 3.22171 3.73087 2.64338 4.31004C2.06421 4.88837 1.82921 5.67587 1.73254 6.87504H18.2675C18.1709 5.67504 17.9359 4.88837 17.3567 4.31004C16.7784 3.73087 15.9909 3.49587 14.7917 3.39921V2.08337C14.7917 1.91761 14.7259 1.75864 14.6087 1.64143C14.4914 1.52422 14.3325 1.45837 14.1667 1.45837C14.001 1.45837 13.842 1.52422 13.7248 1.64143C13.6076 1.75864 13.5417 1.91761 13.5417 2.08337V3.34421C12.9875 3.33337 12.3659 3.33337 11.6667 3.33337H8.33338C7.63421 3.33337 7.01254 3.33337 6.45838 3.34421V2.08337Z" fill="black"/>
<path fill-rule="evenodd" clip-rule="evenodd" d="M1.66669 10C1.66669 9.30083 1.66669 8.67917 1.67752 8.125H18.3225C18.3334 8.67917 18.3334 9.30083 18.3334 10V11.6667C18.3334 14.8092 18.3334 16.3808 17.3567 17.3567C16.3809 18.3333 14.8092 18.3333 11.6667 18.3333H8.33335C5.19085 18.3333 3.61919 18.3333 2.64335 17.3567C1.66669 16.3808 1.66669 14.8092 1.66669 11.6667V10ZM14.1667 11.6667C14.3877 11.6667 14.5997 11.5789 14.7559 11.4226C14.9122 11.2663 15 11.0543 15 10.8333C15 10.6123 14.9122 10.4004 14.7559 10.2441C14.5997 10.0878 14.3877 10 14.1667 10C13.9457 10 13.7337 10.0878 13.5774 10.2441C13.4212 10.4004 13.3334 10.6123 13.3334 10.8333C13.3334 11.0543 13.4212 11.2663 13.5774 11.4226C13.7337 11.5789 13.9457 11.6667 14.1667 11.6667ZM14.1667 15C14.3877 15 14.5997 14.9122 14.7559 14.7559C14.9122 14.5996 15 14.3877 15 14.1667C15 13.9457 14.9122 13.7337 14.7559 13.5774C14.5997 13.4211 14.3877 13.3333 14.1667 13.3333C13.9457 13.3333 13.7337 13.4211 13.5774 13.5774C13.4212 13.7337 13.3334 13.9457 13.3334 14.1667C13.3334 14.3877 13.4212 14.5996 13.5774 14.7559C13.7337 14.9122 13.9457 15 14.1667 15ZM10.8334 10.8333C10.8334 11.0543 10.7456 11.2663 10.5893 11.4226C10.433 11.5789 10.221 11.6667 10 11.6667C9.77901 11.6667 9.56705 11.5789 9.41077 11.4226C9.25448 11.2663 9.16669 11.0543 9.16669 10.8333C9.16669 10.6123 9.25448 10.4004 9.41077 10.2441C9.56705 10.0878 9.77901 10 10 10C10.221 10 10.433 10.0878 10.5893 10.2441C10.7456 10.4004 10.8334 10.6123 10.8334 10.8333ZM10.8334 14.1667C10.8334 14.3877 10.7456 14.5996 10.5893 14.7559C10.433 14.9122 10.221 15 10 15C9.77901 15 9.56705 14.9122 9.41077 14.7559C9.25448 14.5996 9.16669 14.3877 9.16669 14.1667C9.16669 13.9457 9.25448 13.7337 9.41077 13.5774C9.56705 13.4211 9.77901 13.3333 10 13.3333C10.221 13.3333 10.433 13.4211 10.5893 13.5774C10.7456 13.7337 10.8334 13.9457 10.8334 14.1667ZM5.83335 11.6667C6.05437 11.6667 6.26633 11.5789 6.42261 11.4226C6.57889 11.2663 6.66669 11.0543 6.66669 10.8333C6.66669 10.6123 6.57889 10.4004 6.42261 10.2441C6.26633 10.0878 6.05437 10 5.83335 10C5.61234 10 5.40038 10.0878 5.2441 10.2441C5.08782 10.4004 5.00002 10.6123 5.00002 10.8333C5.00002 11.0543 5.08782 11.2663 5.2441 11.4226C5.40038 11.5789 5.61234 11.6667 5.83335 11.6667ZM5.83335 15C6.05437 15 6.26633 14.9122 6.42261 14.7559C6.57889 14.5996 6.66669 14.3877 6.66669 14.1667C6.66669 13.9457 6.57889 13.7337 6.42261 13.5774C6.26633 13.4211 6.05437 13.3333 5.83335 13.3333C5.61234 13.3333 5.40038 13.4211 5.2441 13.5774C5.08782 13.7337 5.00002 13.9457 5.00002 14.1667C5.00002 14.3877 5.08782 14.5996 5.2441 14.7559C5.40038 14.9122 5.61234 15 5.83335 15Z" fill="black"/>
</svg>
