<svg width="23" height="23" viewBox="0 0 23 23" fill="none" xmlns="http://www.w3.org/2000/svg">
<path d="M11.0686 0C10.3936 4.21078 9.82641 6.71391 8.27016 8.27016C6.71391 9.82641 4.21078 10.3936 0 11.0686C4.21078 11.7436 6.71391 12.3108 8.27016 13.8717C9.82641 15.428 10.3936 17.9311 11.0686 22.1452C11.7436 17.9311 12.3108 15.428 13.867 13.867C15.428 12.3108 17.9311 11.7436 22.1452 11.0686C17.9311 10.3936 15.428 9.82641 13.8717 8.27016C12.3108 6.71391 11.7436 4.21078 11.0686 0ZM18.9014 3.24516C16.7545 4.79672 15.1045 5.91234 13.6327 6.53578C13.8717 6.97641 14.1483 7.35141 14.467 7.67016C14.7858 7.98891 15.1608 8.26547 15.6061 8.50922C16.2342 7.03734 17.3498 5.38734 18.9014 3.24516ZM3.24797 3.24797C4.80141 5.39203 5.91234 7.03734 6.53578 8.50453C6.97641 8.26547 7.35141 7.98891 7.67016 7.67016C7.98891 7.35141 8.26547 6.97641 8.50453 6.53578C7.03734 5.91234 5.39203 4.80141 3.24797 3.24797ZM15.6061 13.628C15.1608 13.8717 14.7858 14.1483 14.467 14.467C14.1483 14.7858 13.8717 15.1608 13.628 15.6061C15.1045 16.2295 16.7545 17.3452 18.9014 18.9014C17.3452 16.7545 16.2295 15.1045 15.6061 13.628ZM6.53578 13.6327C5.91234 15.1045 4.79672 16.7545 3.24516 18.9014C5.38734 17.3498 7.03734 16.2342 8.50922 15.6061C8.26547 15.1608 7.98891 14.7858 7.67016 14.467C7.35141 14.1483 6.97641 13.8717 6.53578 13.6327Z" fill="black"/>
</svg>
